<svg width="24" height="21" fill="none" xmlns="http://www.w3.org/2000/svg">
<path d="M1.44252 11.9763C1.5407 11.9922 1.64008 11.9996 1.73954 11.9983L18.6711 11.9983L18.3019 12.17C17.941 12.3408 17.6127 12.5733 17.3317 12.8569L12.5836 17.6049C11.9583 18.2018 11.8532 19.1621 12.3346 19.8802C12.8949 20.6453 13.9694 20.8115 14.7346 20.2512C14.7965 20.2059 14.8552 20.1565 14.9104 20.1034L23.4964 11.5175C24.1674 10.8472 24.1679 9.75998 23.4977 9.08898L23.4964 9.08764L14.9104 0.501699C14.2389 -0.167951 13.1516 -0.16645 12.4819 0.505078C12.4292 0.557929 12.38 0.614163 12.3346 0.673417C11.8532 1.39147 11.9583 2.35175 12.5836 2.94869L17.3231 7.70531C17.575 7.95753 17.8647 8.16898 18.1817 8.33208L18.6968 8.5639L1.83404 8.5639C0.956822 8.53133 0.187198 9.14409 0.0224008 10.0063C-0.129409 10.9425 0.506381 11.8244 1.44252 11.9763Z" fill="currentColor"/>
</svg>
